<?xml version="1.0" encoding="UTF-8"?>
<svg width="427.12" height="249.18" enable-background="new 0 0 427.119 249.18" viewBox="0 0 427.119 249.18" xmlns="http://www.w3.org/2000/svg">
 <defs>
  <linearGradient id="i" x1="300.83" x2="145.76" y1="235.21" y2="-44.537" gradientUnits="userSpaceOnUse">
   <stop stop-color="#ca7b41" offset=".33"/>
   <stop stop-color="#fdcc8a" offset=".67"/>
  </linearGradient>
  <linearGradient id="h" x1="398.21" x2="387.3" y1="58.508" y2="11.26" gradientUnits="userSpaceOnUse">
   <stop stop-color="#1a1a1a" offset=".15"/>
   <stop stop-color="#ca7b41" offset=".85"/>
  </linearGradient>
  <linearGradient id="g" x2="0" y1="100.98" y2="9.5888" gradientUnits="userSpaceOnUse">
   <stop stop-color="#1a1a1a" offset="0"/>
   <stop stop-color="#ca7b41" offset="1"/>
  </linearGradient>
  <linearGradient id="f" x2="0" y1="180.48" y2="77.875" gradientUnits="userSpaceOnUse">
   <stop stop-color="#1a1a1a" offset="0"/>
   <stop stop-color="#ca7b41" offset="1"/>
  </linearGradient>
  <linearGradient id="e" x1="405.84" x2="422.99" gradientUnits="userSpaceOnUse">
   <stop stop-color="#ffc" offset=".38"/>
   <stop stop-color="#987b53" offset=".62"/>
  </linearGradient>
  <linearGradient id="d" x1="387.08" x2="404.23" gradientUnits="userSpaceOnUse">
   <stop stop-color="#ffc" offset=".31"/>
   <stop stop-color="#cba349" offset=".69"/>
  </linearGradient>
  <linearGradient id="c" x2="0" y1="91.825" y2="39.476" gradientUnits="userSpaceOnUse">
   <stop stop-color="#987b53" offset="0"/>
   <stop offset="1"/>
  </linearGradient>
  <linearGradient id="a" x1="394.95" x2="394.7" y1="26.987" y2="19.695" gradientUnits="userSpaceOnUse">
   <stop stop-color="#655237" offset=".3"/>
   <stop stop-color="#e6e6e6" offset=".7"/>
  </linearGradient>
  <linearGradient id="o" x2="0" y1="194.03" y2="120.96" gradientUnits="userSpaceOnUse">
   <stop stop-color="#1a1a1a" offset="0"/>
   <stop stop-color="#ca7b41" offset="1"/>
  </linearGradient>
  <linearGradient id="n" x1="52.444" x2="32.299" y1="241.26" y2="160.51" gradientUnits="userSpaceOnUse">
   <stop stop-color="#655237" offset=".06"/>
   <stop stop-color="#ca7b41" offset=".94"/>
  </linearGradient>
  <linearGradient id="m" x1="275" x2="255.45" y1="234.73" y2="166.48" gradientUnits="userSpaceOnUse">
   <stop stop-color="#ca7b41" offset=".33"/>
   <stop stop-color="#fdcc8a" offset=".67"/>
  </linearGradient>
  <linearGradient id="l" x2="0" y1="35.163" y2="18.072" gradientUnits="userSpaceOnUse">
   <stop stop-color="#333" offset="0"/>
   <stop stop-color="#ca7b41" offset="1"/>
  </linearGradient>
  <radialGradient id="b" cx="411.98" cy="34.019" r="30.349" gradientUnits="userSpaceOnUse">
   <stop stop-color="#1a1a1a" offset=".1"/>
   <stop stop-color="#ca7b41" offset=".9"/>
  </radialGradient>
  <radialGradient id="k" cx="354.93" cy="27.189" r="7.6164" gradientUnits="userSpaceOnUse">
   <stop stop-color="#ca7b41" offset=".15"/>
   <stop stop-color="#1a1a1a" offset=".85"/>
  </radialGradient>
  <radialGradient id="j" cx="353.96" cy="24.826" r="4.7428" gradientUnits="userSpaceOnUse">
   <stop stop-color="#fff" offset=".4"/>
   <stop offset=".6"/>
  </radialGradient>
 </defs>
 <path d="m312.9,6.055c38.065-11.75 26.915-2.529 68.699-1.635 21.86.445 34.352,20.817 37.176,26.317 0,6.247.446,16.211-13.384,16.359-1.784,9.665-13.235,8.179-12.937,16.058 1.636,36.135-4.908,126.1-84.463,113.75-11.599-9.518-163.87,12.491-211.6,9.964 3.718-8.477-96.951,2.083-49.963-32.417 56.353-41.32 154.79-155.38 266.46-148.38z" fill="url(#i)" fill-rule="evenodd" stroke="#ca7b41" stroke-linejoin="round" stroke-miterlimit="2.4142" stroke-width=".2767"/>
 <path d="m387.7,58.396c-21.264-3.272-22.305-22.752-22.156-29.591 .298-23.644 25.28-14.573 36.133-16.952 3.124-.596 14.723,10.704 16.507,15.761-1.933.594-11.151-1.19-13.681-.743-8.32.893-9.07,27.51-16.8,31.525z" fill="url(#h)" fill-rule="evenodd"/>
 <path d="m384.87,54.084c3.124,3.567 16.655,10.854 29.146,1.486 25.132-12.936-5.801-16.507-5.801-20.225-3.27.001-19.63,17.251-23.35,18.739z" fill-rule="evenodd" stroke="#000" stroke-linejoin="round" stroke-miterlimit="2.4142" stroke-width="1.9369"/>
 <path d="m389.93 56.461c-35.095 17.697-35.986-14.273-40.893-17.693-11.302-7.883-3.568-16.358 1.635-29.146-20.074 16.061-14.721 28.401-6.394 66.172 5.649 25.28 35.095 31.078 44.461 20.074 6.23-24.387 2.22-33.756 1.18-39.407z" fill="url(#g)" fill-rule="evenodd"/>
 <path d="m336.1,99.289c-10.855-10.11-42.528-50.558-82.976,16.207 41.785-29.442 95.467,42.827 62.604,64.836 17.546,1.634 77.474-2.825 72.863-87.139-.14-.901-19.77,36.269-52.48,6.088z" fill="url(#f)" fill-rule="evenodd"/>
 <path d="m408.07,52.894c6.989-2.527 7.884-12.342 12.344-5.502 6.394,10.112-.447,67.064-3.568,96.504-2.53,24.541-11.601,28.701-11.004,24.092 1.49-12.34 5.8-93.087 2.23-115.1z" fill="url(#e)" fill-rule="evenodd" stroke="#ca7b41" stroke-linejoin="round" stroke-miterlimit="2.4142" stroke-width=".2767"/>
 <path d="m388 49.323c14.573-7.878 11.896-4.757 15.019 3.571 4.163 11.004-2.975 89.369-7.881 113.9-1.34 6.542-5.204 8.477-5.947 6.99-6.25-12.48 3.86-103.64-1.19-124.46z" fill="url(#d)" fill-rule="evenodd" stroke="#ca7b41" stroke-linejoin="round" stroke-miterlimit="2.4142" stroke-width=".2767"/>
 <path d="m406.29,50.96c2.083-1.042 13.384-7.88 11.6-11.451 .596,1.936 5.206,34.945-.446,52.346-5.502-1.637-6.987-4.761-7.435-5.95 .3-8.772-2.82-32.715-3.71-34.945z" fill="url(#c)" fill-rule="evenodd"/>
 <path d="m410.9,26.872c-6.544-1.189-25.131-3.569-28.104,6.839-3.718,4.76.149,24.835 13.828,19.479 2.229-2.08 10.558-7.729 12.192-12.043 3.719,3.419 6.545,8.476 11.896,6.839 12.93-2.974 4.3-30.186-9.82-21.114z" fill="url(#b)" fill-rule="evenodd" stroke="#000" stroke-linejoin="round" stroke-miterlimit="2.4142" stroke-width=".2075"/>
 <path d="m389.19,26.872 9.069-.447c0-2.677 1.488-5.053 2.231-5.798-2.23-2.382-11.45,1.04-11.3,6.245z" fill="url(#a)" fill-rule="evenodd"/>
 <path d="m406.88,27.614c-2.529,0-6.098-1.635-8.178-1.635-2.083-8.179 5.946-6.988 9.07.445-1.34-5.354 3.865-11.746 8.624-1.042-1.93-.146-6.39,1.936-9.51,2.232z" fill-rule="evenodd" stroke="#000" stroke-linejoin="round" stroke-miterlimit="2.4142" stroke-width="1.9369"/>
 <path d="m262.49 123.23c-20.521 2.381-20.669 9.518-50.856 37.619-6.69 6.097-23.048 12.192-39.258 9.22-42.082-7.729-12.49-54.425-36.431-44.014-27.509 12.192-63.346 31.226-72.862 34.051-18.44 5.206 6.096-5.354 23.197 28.55 4.163 8.18 94.72-13.678 142.75 1.042 36.283 11.152 87.584-1.486 92.046-7.583 34.51-47.44-29.88-68.7-58.58-58.89z" fill="url(#o)" fill-rule="evenodd"/>
 <path d="m37.806 152.52c-11.599 2.527-28.252 10.408-36.729 29.89-8.03 18.29 27.956 18.143 41.933 31.821 9.071 22.753 8.179 29.44 38.215 34.945 19.485-52.05-31.077-96.36-43.419-96.66z" fill="url(#n)" fill-rule="evenodd"/>
 <path d="m60.41 207.69 10.855 39.256" fill="none" stroke="#000" stroke-linejoin="round" stroke-miterlimit="2.4142" stroke-width="1.9369"/>
 <path d="m71.265 206.65 9.961 41.335" fill="none" stroke="#000" stroke-linejoin="round" stroke-miterlimit="2.4142" stroke-width="1.9369"/>
 <path d="m225.76 227.47c57.545-7.733 99.927-29.146 93.233-46.691-24.089-14.124-121.49 3.716-114.2 16.505 2.53 4.31 19.78 22.16 20.97 30.19z" fill="url(#m)" fill-rule="evenodd"/>
 <path d="m211.64 203.97c1.933-1.932 10.706-5.798 15.019-5.798" fill="none" stroke="#655237" stroke-linejoin="round" stroke-miterlimit="2.4142" stroke-width="1.9369"/>
 <path d="m218.03 212c1.934-1.936 10.557-6.546 14.872-6.546" fill="none" stroke="#655237" stroke-linejoin="round" stroke-miterlimit="2.4142" stroke-width="2.4902"/>
 <path d="m224.72 220.18c1.935-1.936 10.262-6.693 14.427-6.693" fill="none" stroke="#655237" stroke-linejoin="round" stroke-miterlimit="2.4142" stroke-width="3.2511"/>
 <g fill-rule="evenodd">
  <path d="m354.54 18.099c3.567 0 6.692 4.013 6.692 8.624s-3.125 8.475-6.692 8.475c-3.719 0-6.69-3.865-6.69-8.475s2.97-8.624 6.69-8.624z" fill="url(#l)"/>
  <path d="m359.3 26.424c-2.231 9.814-5.354 8.625-8.922 2.677-3.13-7.881 7.43-15.317 8.92-2.677z" fill="url(#k)"/>
  <path d="m350.52 27.465c3.42-5.204 4.607-2.973 8.177-1.041-4.76 2.677-2.38 2.381-8.18 1.041z" fill="url(#j)" stroke="#1a1a1a" stroke-linejoin="round" stroke-miterlimit="2.4142" stroke-width=".2075"/>
 </g>
</svg>
